<?xml version="1.0" encoding="UTF-8"?>
<svg xmlns="http://www.w3.org/2000/svg" xmlns:xlink="http://www.w3.org/1999/xlink" viewBox="0 0 24 24" version="1.1" width="24px" height="24px">
<g id="surface1">
<path style=" " d="M 19 2 L 9.59375 10 L 12.59375 10 L 7.59375 15 L 10.59375 15 L 5 22 L 15.40625 13 L 12.40625 13 L 17.40625 8 L 14.40625 8 Z M 12 3 C 7 3 3 7 3 12 C 3 14.5 3.988281 16.804688 5.6875 18.40625 L 7.09375 17 C 5.792969 15.800781 5 14 5 12 C 5 8.101563 8.101563 5 12 5 C 12.398438 5 12.695313 4.992188 13.09375 5.09375 L 14.8125 3.40625 C 13.914063 3.207031 13 3 12 3 Z M 18.3125 5.59375 L 16.90625 7 C 18.207031 8.199219 19 10 19 12 C 19 15.898438 15.898438 19 12 19 C 11.601563 19 11.304688 19.007813 10.90625 18.90625 L 9.1875 20.59375 C 10.085938 20.792969 11 21 12 21 C 17 21 21 17 21 12 C 21 9.5 20.011719 7.195313 18.3125 5.59375 Z "/>
</g>
</svg>
