<?xml version="1.0" encoding="iso-8859-1"?>
<!-- Generator: Adobe Illustrator 22.0.1, SVG Export Plug-In . SVG Version: 6.00 Build 0)  -->
<svg xmlns="http://www.w3.org/2000/svg" xmlns:xlink="http://www.w3.org/1999/xlink" version="1.1" id="Layer_1" x="0px" y="0px" viewBox="0 0 64 64" style="enable-background:new 0 0 64 64;" xml:space="preserve" width="64px" height="64px">
<path style="fill:#F9DD8F;" d="M12.664,63c0.759-12.886,2.297-23.897,4.575-32.736C20.19,19.484,25.16,9.641,32.026,1  c5.75,7.743,10.516,17.058,13.817,27.026c3.393,9.948,4.628,20.207,5.552,29.904h-0.257l-0.013-0.02  c-4.04-7.334-7.228-13.124-11.011-18.556c-0.918-1.135-1.532-1.584-2.172-1.584c-0.832,0-1.545,0.376-2.713,0.997l-0.621,0.323  C25.253,45.19,17.793,53.435,12.935,63H12.664z"/>
<path style="fill:#F6D397;" d="M43.113,37.424c-0.918-1.135-1.531-1.584-2.172-1.584c-0.832,0-1.545,0.376-2.713,0.997l-0.423,0.22  c0.099,0.114,0.201,0.235,0.308,0.367c3.782,5.433,6.971,11.222,11.011,18.556L49.137,56L51,57c-0.33-3.461-0.507-4.436-1-8  C48.337,46.169,44.888,39.974,43.113,37.424z"/>
<path style="fill:#FFEB9B;" d="M22.239,30.264c2.208-8.068,5.551-15.609,9.97-22.515c1.323-2.067,1.303-4.744-0.158-6.715L32.026,1  C25.16,9.641,20.19,19.484,17.239,30.264c-2.277,8.839-3.816,19.85-4.575,32.736h0.271c1.542-3.035,3.347-5.936,5.39-8.679  C19.184,45.117,20.491,37.046,22.239,30.264z"/>
<g>
	<path style="fill:#8D6C9F;" d="M46.792,27.712c-3.324-10.04-8.153-19.483-13.964-27.308C32.643,0.154,32.353,0.005,32.042,0   c-0.307-0.006-0.605,0.134-0.8,0.378c-6.945,8.742-11.98,18.709-14.972,29.636c-2.293,8.897-3.842,19.976-4.604,32.928   c-0.017,0.274,0.081,0.544,0.271,0.744C12.125,63.887,12.389,64,12.664,64h0.271c0.377,0,0.721-0.212,0.892-0.547   c4.778-9.409,12.153-17.544,21.243-23.477l0.628-0.327c1.117-0.594,1.68-0.88,2.243-0.88c0.274,0,0.744,0.408,1.352,1.155   c3.75,5.387,6.927,11.153,10.948,18.453c0.012,0.021,0.045,0.076,0.058,0.097c0.185,0.284,0.5,0.455,0.839,0.455h0.258   c0.281,0,0.551-0.119,0.74-0.327c0.189-0.209,0.282-0.487,0.255-0.768C51.512,48.628,50.282,37.947,46.792,27.712z M40.89,38.725   c-0.948-1.174-1.812-1.955-2.949-1.955c-1.087,0-1.966,0.468-3.175,1.11l-0.704,0.372c-5.531,3.607-10.411,7.986-14.512,12.932   c0.311-3.443,0.714-6.675,1.208-9.635c0.091-0.545-0.277-1.061-0.821-1.151c-0.555-0.098-1.06,0.277-1.151,0.821   c-0.646,3.868-1.139,8.186-1.472,12.827c-1.21,1.644-2.354,3.332-3.39,5.081c0.82-11.141,2.258-20.751,4.281-28.6   c2.797-10.222,7.436-19.591,13.794-27.868c5.34,7.442,9.787,16.293,12.898,25.69c2.898,8.5,4.212,17.362,5.073,25.399   C46.822,48.071,44.081,43.304,40.89,38.725z"/>
	<path style="fill:#8D6C9F;" d="M21.572,33.026c-0.529-0.138-1.08,0.181-1.22,0.716c-0.251,0.965-0.489,1.966-0.714,3.002   c-0.117,0.54,0.226,1.072,0.766,1.189c0.071,0.016,0.143,0.022,0.213,0.022c0.46,0,0.875-0.319,0.977-0.788   c0.219-1.009,0.449-1.982,0.694-2.922C22.427,33.712,22.106,33.166,21.572,33.026z"/>
	<path style="fill:#8D6C9F;" d="M38.512,25.546l-4.379-0.523c-0.233-0.028-0.415-0.214-0.438-0.447l-1.152-11.525   c-0.03-0.3-0.264-0.45-0.498-0.45s-0.468,0.15-0.498,0.45l-1.152,11.525c-0.023,0.233-0.206,0.419-0.438,0.447l-4.31,0.514   c-0.497,0.059-0.608,0.731-0.157,0.947l3.571,1.712c0.197,0.094,0.31,0.306,0.279,0.522l-0.461,3.221   c-0.047,0.332,0.219,0.573,0.499,0.573c0.122,0,0.246-0.045,0.349-0.148l1.965-1.965c0.098-0.098,0.226-0.146,0.354-0.146   s0.256,0.049,0.354,0.146l2.059,2.059c0.102,0.102,0.227,0.148,0.349,0.148c0.271,0,0.529-0.223,0.502-0.544l-0.285-3.371   c-0.017-0.203,0.09-0.396,0.272-0.488l3.382-1.715C39.121,26.265,39.004,25.605,38.512,25.546z"/>
	<path style="fill:#8D6C9F;" d="M44.496,11.583c0.19,0.3,0.514,0.464,0.845,0.464c0.184,0,0.369-0.051,0.535-0.156l1.484-0.943   c0.467-0.296,0.604-0.914,0.308-1.38c-0.296-0.467-0.915-0.603-1.38-0.308l-1.484,0.943C44.337,10.499,44.199,11.117,44.496,11.583   z"/>
	<path style="fill:#8D6C9F;" d="M46.681,15.829c0.142,0.415,0.53,0.677,0.946,0.677c0.107,0,0.216-0.018,0.323-0.054l1.676-0.572   c0.522-0.179,0.802-0.747,0.623-1.27s-0.747-0.8-1.27-0.623l-1.676,0.572C46.781,14.738,46.502,15.307,46.681,15.829z"/>
	<path style="fill:#8D6C9F;" d="M48.041,20.362c0.051,0.517,0.485,0.902,0.994,0.902c0.032,0,0.065-0.002,0.099-0.005l1.792-0.176   c0.55-0.054,0.951-0.543,0.897-1.093c-0.055-0.549-0.533-0.946-1.093-0.897l-1.792,0.176   C48.389,19.323,47.987,19.812,48.041,20.362z"/>
	<path style="fill:#8D6C9F;" d="M42.274,8.083c0.262,0,0.523-0.103,0.72-0.306l1.229-1.273c0.383-0.397,0.372-1.03-0.025-1.414   c-0.397-0.383-1.03-0.372-1.414,0.025l-1.229,1.273c-0.383,0.397-0.372,1.03,0.025,1.414C41.774,7.99,42.024,8.083,42.274,8.083z"/>
</g>
</svg>
