<?xml version="1.0" encoding="UTF-8"?>
<svg xmlns="http://www.w3.org/2000/svg" xmlns:xlink="http://www.w3.org/1999/xlink" viewBox="0 0 64 64" version="1.1" width="64px" height="64px">
<g id="surface1">
<path style=" fill:#FAEFDE;" d="M 10.921875 40.328125 C 10.421875 40.328125 8.808594 39 7.921875 35.859375 C 7.03125 32.71875 7.828125 30.578125 8.230469 30.480469 C 8.230469 30.480469 8.960938 29.011719 11.328125 29.328125 C 12.210938 29.449219 11.46875 27.550781 11.621094 26.699219 C 11.710938 25.769531 11.664063 24.828125 11.488281 23.910156 C 11.0625 21 10.992188 18.046875 11.28125 15.121094 C 11.820313 9.671875 15.019531 6.421875 19.851563 6.421875 C 20.210938 6.414063 20.5625 6.296875 20.851563 6.078125 C 23.238281 4.320313 27.921875 3 31.789063 3 L 33.5 3 C 43.851563 3 51.328125 8.289063 54.398438 17.640625 C 53.21875 17.511719 53.621094 18.328125 52.78125 19.140625 C 52.128906 19.769531 49.898438 20.269531 50.679688 22.378906 C 51.589844 24.589844 52.113281 26.941406 52.21875 29.328125 C 52.21875 29.941406 55.28125 28.859375 55.308594 28.859375 C 55.71875 29 56.46875 32.691406 55.621094 35.859375 C 54.769531 39.03125 53.171875 40.328125 52.621094 40.328125 C 51.875 40.351563 51.226563 40.84375 51 41.550781 C 48.148438 51.210938 40.621094 61 31.789063 61 C 22.960938 61 15.429688 51.210938 12.558594 41.550781 C 12.34375 40.824219 11.675781 40.328125 10.921875 40.328125 Z "/>
<path style=" fill:#EFD8BE;" d="M 8 35.851563 C 7.148438 32.660156 7.910156 30.570313 8.308594 30.46875 C 8.308594 30.46875 8.5 28.960938 10.871094 29.28125 C 11.75 29.398438 12.328125 37.910156 12.148438 41.28125 C 12.070313 42.058594 8.808594 39 8 35.851563 Z "/>
<path style=" fill:#EFD8BE;" d="M 55.480469 35.851563 C 56.328125 32.660156 55.570313 30.570313 55.171875 30.46875 C 55.171875 30.46875 54.980469 28.960938 52.609375 29.28125 C 51.730469 29.398438 51.148438 37.910156 51.328125 41.28125 C 51.371094 42.058594 54.640625 39 55.480469 35.851563 Z "/>
<path style=" fill:#CDA1A7;" d="M 10 24 C 10 24 17 25 20 17 C 25 18.609375 27.601563 22.609375 51 21 C 53.320313 20.839844 53.570313 18.511719 54.789063 18.640625 C 51.621094 9.289063 43.71875 3 33 3 L 31 3 C 27.4375 2.949219 23.945313 3.996094 21 6 C 20.691406 6.21875 19.371094 5.910156 19 6 C 15 7 11.820313 10.890625 11 16 C 10.417969 18.929688 10.214844 21.917969 10.398438 24.898438 C 8.980469 38.910156 10 24 10 24 Z "/>
<path style=" fill:#DBB2BA;" d="M 10.398438 24.898438 C 10.398438 24.628906 10.339844 24.339844 10.320313 24.03125 L 10 24 C 10 24 10.410156 24.929688 10.398438 24.898438 Z "/>
<path style=" fill:#DBB2BA;" d="M 33 3 L 31 3 C 27.4375 2.949219 23.945313 3.996094 21 6 C 11 9 21 6.171875 21 6.378906 C 21.253906 7.539063 22.011719 8.527344 23.066406 9.074219 C 24.121094 9.621094 25.363281 9.671875 26.460938 9.210938 C 28.042969 8.511719 29.734375 8.101563 31.460938 8 L 33.199219 8 C 41.609375 8 48 13.121094 51.238281 21 C 53.339844 20.699219 53.949219 19.78125 55.128906 19.910156 C 52 10.53125 43.71875 3 33 3 Z "/>
<path style=" fill:#EFD8BE;" d="M 47 49 C 44.320313 49.015625 41.746094 50.039063 39.789063 51.871094 C 37.667969 54.015625 34.808594 55.273438 31.789063 55.390625 C 28.773438 55.273438 25.914063 54.015625 23.789063 51.871094 C 21.839844 50.042969 19.273438 49.019531 16.601563 49 L 15.179688 49 C 18.898438 55.589844 25 61 31.789063 61 C 38.578125 61 44.679688 55.589844 48.398438 49 Z "/>
<path style=" fill:#8D6C9F;" d="M 57 31.171875 C 56.648438 29.449219 55.78125 28.320313 54.570313 28 C 54.050781 27.871094 53.503906 27.894531 53 28.070313 C 53.003906 26.003906 52.664063 23.953125 52 22 C 51.863281 21.714844 51.800781 21.402344 51.820313 21.089844 C 52.101563 20.871094 53.570313 21.089844 54.960938 21.640625 C 55.304688 21.78125 55.699219 21.722656 55.984375 21.484375 C 56.273438 21.242188 56.402344 20.863281 56.320313 20.5 C 53.800781 8.910156 45.210938 2 33.359375 2 L 31.75 2 C 28.238281 2 23.21875 3.109375 20.191406 5.21875 C 14.75 5.390625 10.519531 10.121094 9.839844 16.839844 C 9.433594 19.917969 9.511719 23.039063 10.070313 26.089844 C 10.070313 26.359375 10.160156 26.589844 10.191406 26.800781 C 10.21875 27.011719 10.269531 27.558594 10.289063 28 C 9.839844 27.878906 9.363281 27.878906 8.910156 28 C 6.589844 28.621094 5.660156 32.179688 6.761719 36.269531 C 7.621094 39.460938 9.410156 41.800781 11.300781 42.269531 C 14.421875 52.109375 22.300781 61.871094 31.75 61.871094 C 41.199219 61.871094 49.078125 52.109375 52.199219 42.269531 C 54.089844 41.761719 55.878906 39.410156 56.738281 36.269531 C 57.210938 34.613281 57.300781 32.867188 57 31.171875 Z M 54.789063 35.75 C 53.96875 38.75 52.308594 40.421875 51.421875 40.421875 C 50.960938 40.402344 50.546875 40.699219 50.421875 41.140625 C 47.699219 50.46875 40.378906 59.910156 31.75 59.910156 C 23.121094 59.910156 15.800781 50.46875 13 41.128906 C 12.871094 40.6875 12.460938 40.390625 12 40.410156 C 11.109375 40.410156 9.441406 38.789063 8.628906 35.738281 C 7.769531 32.539063 8.488281 30.148438 9.371094 29.921875 C 9.695313 29.890625 10.023438 29.988281 10.28125 30.191406 C 10.28125 30.449219 10.28125 30.691406 10.28125 30.871094 C 10.28125 31.421875 10.726563 31.871094 11.28125 31.871094 C 11.832031 31.871094 12.28125 31.421875 12.28125 30.871094 C 12.324219 29.390625 12.273438 27.910156 12.121094 26.441406 C 12.121094 26.210938 12.039063 25.941406 11.980469 25.628906 C 11.480469 22.777344 11.429688 19.867188 11.828125 17 C 12.410156 11.210938 15.96875 7.171875 20.519531 7.171875 C 20.738281 7.171875 20.945313 7.101563 21.121094 6.96875 C 23.738281 4.96875 28.550781 3.96875 31.75 3.96875 L 33.359375 3.96875 C 43.769531 4 51.179688 9.511719 53.941406 19.191406 C 52.738281 18.910156 51.28125 18.808594 50.441406 19.621094 C 49.601563 20.429688 49.628906 21.320313 50.128906 22.621094 C 50.988281 25.277344 51.285156 28.082031 51 30.859375 C 50.964844 31.410156 51.382813 31.882813 51.929688 31.921875 L 52 31.921875 C 52.523438 31.921875 52.957031 31.519531 53 31 C 53 30.75 53 30.511719 53 30.269531 C 53.058594 30.25 53.117188 30.226563 53.171875 30.199219 C 53.429688 30 53.753906 29.902344 54.078125 29.929688 C 54.511719 30.050781 54.878906 30.660156 55.078125 31.570313 C 55.300781 32.964844 55.207031 34.394531 54.808594 35.75 Z "/>
<path style=" fill:#8D6C9F;" d="M 38.460938 20.261719 C 33.792969 20.253906 29.1875 19.175781 25 17.109375 L 22.488281 15.878906 C 21.3125 15.308594 19.890625 15.695313 19.171875 16.789063 L 16.589844 20.699219 C 16.386719 21 16.359375 21.382813 16.519531 21.707031 C 16.679688 22.03125 17 22.242188 17.363281 22.261719 C 17.722656 22.28125 18.066406 22.105469 18.261719 21.800781 L 20.839844 17.890625 C 21.011719 17.632813 21.34375 17.542969 21.621094 17.679688 L 24.128906 18.910156 C 28.589844 21.109375 33.496094 22.253906 38.46875 22.261719 C 39.023438 22.261719 39.46875 21.8125 39.46875 21.261719 C 39.46875 20.707031 39.023438 20.261719 38.46875 20.261719 Z "/>
<path style=" fill:#8D6C9F;" d="M 46 20.261719 L 42.761719 20.261719 C 42.207031 20.261719 41.761719 20.707031 41.761719 21.261719 C 41.761719 21.8125 42.207031 22.261719 42.761719 22.261719 L 46 22.261719 C 46.550781 22.261719 47 21.8125 47 21.261719 C 47 20.707031 46.550781 20.261719 46 20.261719 Z "/>
<path style=" fill:#8D6C9F;" d="M 25 32 C 25 33.105469 24.105469 34 23 34 C 21.894531 34 21 33.105469 21 32 C 21 30.894531 21.894531 30 23 30 C 24.105469 30 25 30.894531 25 32 Z "/>
<path style=" fill:#8D6C9F;" d="M 44 32 C 44 33.105469 43.105469 34 42 34 C 40.894531 34 40 33.105469 40 32 C 40 30.894531 40.894531 30 42 30 C 43.105469 30 44 30.894531 44 32 Z "/>
<path style=" fill:#8D6C9F;" d="M 31.789063 9.929688 L 31.871094 9.929688 C 32.136719 9.910156 32.382813 9.785156 32.554688 9.582031 C 32.726563 9.378906 32.8125 9.117188 32.789063 8.851563 L 32.628906 6.921875 C 32.609375 6.65625 32.484375 6.40625 32.28125 6.234375 C 32.078125 6.0625 31.816406 5.976563 31.550781 6 C 31.285156 6.019531 31.039063 6.144531 30.867188 6.347656 C 30.691406 6.550781 30.609375 6.816406 30.628906 7.078125 L 30.789063 9 C 30.828125 9.523438 31.265625 9.929688 31.789063 9.929688 Z "/>
<path style=" fill:#8D6C9F;" d="M 45.878906 11.539063 L 44.71875 13 C 44.378906 13.4375 44.457031 14.066406 44.894531 14.40625 C 45.332031 14.746094 45.960938 14.667969 46.300781 14.230469 L 47.449219 12.738281 C 47.789063 12.304688 47.710938 11.675781 47.273438 11.335938 C 46.839844 10.996094 46.210938 11.074219 45.871094 11.511719 Z "/>
<path style=" fill:#8D6C9F;" d="M 41 11.691406 C 41.503906 11.90625 42.089844 11.675781 42.308594 11.171875 L 43.070313 9.410156 C 43.289063 8.902344 43.054688 8.3125 42.546875 8.09375 C 42.035156 7.875 41.449219 8.113281 41.230469 8.621094 L 40.46875 10.378906 C 40.253906 10.886719 40.492188 11.472656 41 11.691406 Z "/>
<path style=" fill:#8D6C9F;" d="M 36.53125 10.160156 L 36.691406 10.160156 C 37.183594 10.167969 37.609375 9.808594 37.691406 9.320313 L 38 7.421875 C 38.089844 6.867188 37.710938 6.347656 37.160156 6.261719 C 36.609375 6.171875 36.089844 6.546875 36 7.101563 L 35.710938 9 C 35.664063 9.261719 35.722656 9.53125 35.878906 9.75 C 36.03125 9.96875 36.265625 10.117188 36.53125 10.160156 Z "/>
</g>
</svg>
