<?xml version="1.0"?>
<svg xmlns="http://www.w3.org/2000/svg" xmlns:xlink="http://www.w3.org/1999/xlink" version="1.1" viewBox="0 0 224 224" width="24px" height="24px"><g fill="none" fill-rule="nonzero" stroke="none" stroke-width="1" stroke-linecap="butt" stroke-linejoin="miter" stroke-miterlimit="10" stroke-dasharray="" stroke-dashoffset="0" font-family="none" font-weight="none" font-size="none" text-anchor="none" style="mix-blend-mode: normal"><path d="M0,224v-224h224v224z" fill="none"/><g fill="#f85140"><g id="surface1"><path d="M177.33333,18.66667l-87.79167,74.66667h28l-46.66667,46.66667h28l-52.20833,65.33333l97.125,-84h-28l46.66667,-46.66667h-28zM112,28c-46.66667,0 -84,37.33333 -84,84c0,23.33333 9.22396,44.84375 25.08333,59.79167l13.125,-13.125c-12.14062,-11.19271 -19.54167,-28 -19.54167,-46.66667c0,-36.38541 28.94792,-65.33333 65.33333,-65.33333c3.71875,0 6.48959,-0.07291 10.20833,0.875l16.04167,-15.75c-8.38541,-1.85938 -16.91667,-3.79167 -26.25,-3.79167zM170.91667,52.20833l-13.125,13.125c12.14062,11.19271 19.54167,28 19.54167,46.66667c0,36.38542 -28.94791,65.33333 -65.33333,65.33333c-3.71875,0 -6.48958,0.07292 -10.20833,-0.875l-16.04167,15.75c8.38542,1.85938 16.91667,3.79167 26.25,3.79167c46.66667,0 84,-37.33333 84,-84c0,-23.33333 -9.22396,-44.84375 -25.08333,-59.79167z"/></g></g></g></svg>
