<?xml version="1.0" encoding="UTF-8"?>
<svg xmlns="http://www.w3.org/2000/svg" xmlns:xlink="http://www.w3.org/1999/xlink" viewBox="0 0 64 64" version="1.1" width="64px" height="64px">
<g id="surface1">
<path style=" fill:#85CBF8;" d="M 63.25 26.078125 L 61.378906 28.78125 C 54.859375 38.152344 47.214844 46.691406 38.621094 54.210938 L 33.320313 58.851563 C 32.566406 59.507813 31.445313 59.507813 30.691406 58.851563 L 25.578125 54.390625 C 16.988281 46.886719 9.34375 38.359375 2.820313 29 L 0.75 26 C 0.292969 25.34375 0.269531 24.480469 0.691406 23.800781 L 1.101563 23.148438 C 3.679688 19.023438 6.875 15.316406 10.570313 12.148438 L 11.429688 11.410156 C 11.792969 11.101563 12.253906 10.929688 12.730469 10.929688 L 51.261719 10.929688 C 51.738281 10.929688 52.199219 11.101563 52.558594 11.410156 L 53.421875 12.148438 C 57.117188 15.316406 60.308594 19.023438 62.890625 23.148438 L 63.300781 23.808594 C 63.757813 24.503906 63.734375 25.40625 63.25 26.078125 Z "/>
<path style=" fill:#ACE3FF;" d="M 62.890625 23.230469 C 60.308594 19.105469 57.117188 15.394531 53.421875 12.230469 L 52.558594 11.488281 C 52.199219 11.179688 51.738281 11.011719 51.261719 11.011719 L 12.738281 11.011719 C 12.261719 11.011719 11.800781 11.179688 11.441406 11.488281 L 10.578125 12.230469 C 6.882813 15.394531 3.691406 19.105469 1.109375 23.230469 L 0.710938 23.878906 C 0.5 24.214844 0.390625 24.605469 0.398438 25 L 2.128906 25.539063 C 21.78125 31.695313 42.855469 31.632813 62.46875 25.359375 L 63.601563 25 C 63.613281 24.605469 63.507813 24.214844 63.300781 23.878906 Z "/>
<path style=" fill:#E0678F;" d="M 55.878906 35.628906 C 53.570313 26.019531 39.78125 25.050781 30.628906 24.628906 C 20.550781 24.160156 21.148438 21.628906 21.148438 21.628906 C 21.148438 21.628906 20.859375 17.628906 34.238281 18.171875 C 46.898438 18.640625 51.910156 21.960938 56.5 27.398438 C 56.691406 27.632813 56.972656 27.769531 57.273438 27.769531 C 57.574219 27.769531 57.859375 27.632813 58.050781 27.398438 L 59.28125 25.800781 C 59.550781 25.441406 59.550781 24.949219 59.28125 24.589844 C 57.929688 22.800781 54.058594 17.339844 53.429688 12.710938 L 49.429688 11.03125 L 50.261719 15.328125 C 41.160156 12.683594 31.734375 11.339844 22.261719 11.328125 C 6.089844 14.328125 3.738281 29 11 33.570313 C 16.671875 37.421875 36.761719 37.199219 36.761719 37.199219 C 42.460938 36.960938 50.089844 39.261719 42.519531 43.199219 C 38 45.671875 24.289063 46.578125 10.128906 38.878906 L 17.539063 46.421875 C 17.539063 46.421875 31.28125 51.941406 43.398438 49.519531 Z "/>
<path style=" fill:#ED7899;" d="M 53.488281 31.421875 C 52.96875 30.808594 52.488281 30.21875 51.910156 29.671875 C 46.570313 25.550781 37.351563 24.941406 30.621094 24.671875 C 25.320313 24.421875 22.96875 23.609375 21.941406 22.898438 C 18.011719 23.898438 18.140625 25.691406 18.140625 25.691406 C 18.140625 25.691406 17.539063 28.199219 27.621094 28.691406 C 36.621094 29.109375 50.058594 30.058594 52.730469 39.191406 L 55.871094 35.691406 C 55.542969 34.246094 54.902344 32.890625 54 31.71875 C 53.804688 31.671875 53.625 31.570313 53.488281 31.421875 Z "/>
<path style=" fill:#ED7899;" d="M 41.320313 44.820313 C 38.121094 42.96875 24.171875 46.511719 10.128906 38.871094 L 17.539063 46.410156 C 19.757813 47.300781 22.046875 48.003906 24.378906 48.511719 C 31 49.320313 44.101563 46.441406 41.320313 44.820313 Z "/>
<path style=" fill:#8D6C9F;" d="M 12 8 C 12.550781 8 13 7.550781 13 7 L 13 5 C 13 4.449219 12.550781 4 12 4 C 11.449219 4 11 4.449219 11 5 L 11 7 C 11 7.550781 11.449219 8 12 8 Z "/>
<path style=" fill:#8D6C9F;" d="M 17 8 C 17.550781 8 18 7.550781 18 7 L 18 5 C 18 4.449219 17.550781 4 17 4 C 16.449219 4 16 4.449219 16 5 L 16 7 C 16 7.550781 16.449219 8 17 8 Z "/>
<path style=" fill:#8D6C9F;" d="M 22 8 C 22.550781 8 23 7.550781 23 7 L 23 5 C 23 4.449219 22.550781 4 22 4 C 21.449219 4 21 4.449219 21 5 L 21 7 C 21 7.550781 21.449219 8 22 8 Z "/>
<path style=" fill:#8D6C9F;" d="M 27 8 C 27.550781 8 28 7.550781 28 7 L 28 5 C 28 4.449219 27.550781 4 27 4 C 26.449219 4 26 4.449219 26 5 L 26 7 C 26 7.550781 26.449219 8 27 8 Z "/>
<path style=" fill:#8D6C9F;" d="M 32 8 C 32.550781 8 33 7.550781 33 7 L 33 5 C 33 4.449219 32.550781 4 32 4 C 31.449219 4 31 4.449219 31 5 L 31 7 C 31 7.550781 31.449219 8 32 8 Z "/>
<path style=" fill:#8D6C9F;" d="M 37 8 C 37.550781 8 38 7.550781 38 7 L 38 5 C 38 4.449219 37.550781 4 37 4 C 36.449219 4 36 4.449219 36 5 L 36 7 C 36 7.550781 36.449219 8 37 8 Z "/>
<path style=" fill:#8D6C9F;" d="M 42 8 C 42.550781 8 43 7.550781 43 7 L 43 5 C 43 4.449219 42.550781 4 42 4 C 41.449219 4 41 4.449219 41 5 L 41 7 C 41 7.550781 41.449219 8 42 8 Z "/>
<path style=" fill:#8D6C9F;" d="M 47 8 C 47.550781 8 48 7.550781 48 7 L 48 5 C 48 4.449219 47.550781 4 47 4 C 46.449219 4 46 4.449219 46 5 L 46 7 C 46 7.550781 46.449219 8 47 8 Z "/>
<path style=" fill:#8D6C9F;" d="M 52 8 C 52.550781 8 53 7.550781 53 7 L 53 5 C 53 4.449219 52.550781 4 52 4 C 51.449219 4 51 4.449219 51 5 L 51 7 C 51 7.550781 51.449219 8 52 8 Z "/>
<path style=" fill:#8D6C9F;" d="M 64.148438 23.351563 L 63.738281 22.691406 C 61.109375 18.476563 57.851563 14.691406 54.078125 11.460938 L 53.21875 10.71875 C 52.664063 10.242188 51.953125 9.988281 51.21875 10 L 12.738281 10 C 12.007813 9.988281 11.296875 10.242188 10.738281 10.71875 L 9.878906 11.460938 C 6.121094 14.699219 2.878906 18.488281 0.261719 22.699219 L -0.148438 23.351563 C -0.789063 24.371094 -0.757813 25.671875 -0.0703125 26.660156 L 2 29.660156 C 8.574219 39.050781 16.265625 47.609375 24.910156 55.140625 L 30 59.601563 C 31.132813 60.589844 32.820313 60.589844 33.949219 59.601563 L 39.28125 55 C 47.933594 47.417969 55.628906 38.800781 62.191406 29.351563 L 64.070313 26.648438 C 64.753906 25.664063 64.785156 24.367188 64.148438 23.351563 Z M 38 53.460938 L 32.699219 58.101563 C 32.324219 58.433594 31.757813 58.433594 31.378906 58.101563 L 26.269531 53.640625 C 24.398438 52 22.570313 50.308594 20.789063 48.578125 C 25.972656 50.195313 31.359375 51.0625 36.789063 51.148438 C 38.125 51.148438 39.460938 51.074219 40.789063 50.929688 C 39.851563 51.78125 38.910156 52.628906 38 53.460938 Z M 43.320313 48.539063 L 43.238281 48.539063 C 31.570313 50.871094 18.089844 45.539063 17.949219 45.539063 C 17.855469 45.507813 17.757813 45.492188 17.660156 45.488281 C 12.550781 40.203125 7.871094 34.519531 3.660156 28.488281 L 1.589844 25.488281 C 1.371094 25.15625 1.371094 24.722656 1.589844 24.390625 L 2 23.761719 C 4.511719 19.726563 7.621094 16.101563 11.21875 13 L 12.078125 12.261719 C 12.261719 12.105469 12.492188 12.019531 12.730469 12.019531 L 16.730469 12.019531 C 10.601563 14.761719 7.46875 19.46875 6.589844 23.648438 C 5.648438 28.109375 7.171875 32.328125 10.441406 34.390625 C 16.300781 38.390625 35.941406 38.199219 36.800781 38.191406 C 40.949219 38.019531 44.449219 39.191406 44.679688 40.070313 C 44.75 40.339844 44.300781 41.160156 42.050781 42.351563 C 37.679688 44.691406 27.898438 44.050781 23.660156 43.039063 C 23.117188 42.910156 22.574219 43.242188 22.445313 43.785156 C 22.316406 44.328125 22.648438 44.871094 23.191406 45 C 26.320313 45.667969 29.511719 46.003906 32.710938 46 C 36.519531 46 40.441406 45.53125 42.988281 44.171875 C 44.039063 43.621094 47.238281 41.929688 46.621094 39.609375 C 45.890625 36.878906 40.308594 36.109375 36.761719 36.25 C 36.558594 36.25 16.921875 36.429688 11.550781 32.78125 C 8.929688 31.128906 7.789063 27.78125 8.550781 24.121094 C 9.578125 19.191406 14.171875 13.46875 24 12 L 48.601563 12 L 49.148438 14.839844 C 47.082031 14.207031 44.964844 13.753906 42.820313 13.480469 C 42.269531 13.402344 41.757813 13.789063 41.679688 14.339844 C 41.601563 14.890625 41.988281 15.402344 42.539063 15.480469 C 45.101563 15.726563 47.613281 16.335938 50 17.300781 C 50.339844 17.476563 50.75 17.441406 51.058594 17.210938 C 51.363281 16.980469 51.511719 16.597656 51.441406 16.21875 L 50.640625 12 L 51.261719 12 C 51.5 12 51.730469 12.085938 51.910156 12.238281 L 52.441406 12.691406 C 52.4375 12.730469 52.4375 12.769531 52.441406 12.808594 C 53.089844 17.589844 56.878906 23.039063 58.441406 25.160156 L 57.21875 26.769531 C 52.398438 21.058594 47.101563 17.660156 34.21875 17.179688 C 27.300781 16.929688 22.851563 17.789063 20.96875 19.738281 C 20.464844 20.222656 20.152344 20.875 20.101563 21.570313 C 20.066406 22.058594 20.21875 22.539063 20.53125 22.921875 C 21.679688 24.449219 25.050781 25.359375 30.53125 25.609375 C 38.230469 25.96875 52.53125 26.609375 54.828125 35.769531 C 51.246094 40.261719 47.390625 44.527344 43.28125 48.539063 Z M 62.46875 25.539063 L 60.601563 28.238281 C 59.261719 30.171875 57.851563 32.058594 56.410156 33.921875 C 52.808594 24.691406 38.558594 24.019531 30.71875 23.660156 C 23.601563 23.300781 22.328125 22 22.148438 21.699219 C 22.148438 21.699219 22.78125 18.808594 34.199219 19.238281 C 46.390625 19.691406 51.199219 22.710938 55.730469 28.121094 C 56.117188 28.585938 56.695313 28.84375 57.300781 28.820313 C 57.910156 28.796875 58.480469 28.496094 58.839844 28 L 60.070313 26.398438 C 60.613281 25.683594 60.613281 24.695313 60.070313 23.980469 C 57.996094 21.269531 56.3125 18.285156 55.070313 15.109375 C 57.738281 17.710938 60.089844 20.621094 62.070313 23.78125 L 62.480469 24.441406 C 62.671875 24.777344 62.652344 25.191406 62.429688 25.511719 Z "/>
<path style=" fill:#8D6C9F;" d="M 20 41.949219 C 18.851563 41.53125 18.191406 41.210938 18.179688 41.199219 C 17.683594 40.957031 17.082031 41.164063 16.839844 41.660156 C 16.597656 42.15625 16.804688 42.757813 17.300781 43 C 17.953125 43.3125 18.621094 43.59375 19.300781 43.839844 C 19.820313 44.035156 20.402344 43.765625 20.59375 43.246094 C 20.789063 42.722656 20.523438 42.144531 20 41.949219 Z "/>
<path style=" fill:#8D6C9F;" d="M 36.949219 14.941406 C 37.683594 14.980469 38.382813 15.027344 39.050781 15.078125 L 39.128906 15.078125 C 39.683594 15.101563 40.148438 14.671875 40.171875 14.121094 C 40.191406 13.566406 39.761719 13.101563 39.210938 13.078125 C 38.542969 13.027344 37.824219 12.976563 37.050781 12.929688 C 36.496094 12.898438 36.023438 13.324219 35.996094 13.875 C 35.964844 14.425781 36.386719 14.898438 36.941406 14.929688 Z "/>
</g>
</svg>
