<?xml version="1.0" encoding="UTF-8"?>
<svg xmlns="http://www.w3.org/2000/svg" xmlns:xlink="http://www.w3.org/1999/xlink" viewBox="0 0 64 64" version="1.1" width="30px" height="30px">
<g id="surface1">
<path style=" fill:#F283A5;" d="M 53 31 C 53 43.148438 43.148438 53 31 53 C 18.851563 53 9 43.148438 9 31 C 9 18.851563 18.851563 9 31 9 C 43.148438 9 53 18.851563 53 31 Z "/>
<path style=" fill:#ED7899;" d="M 31 3 C 15.535156 3 3 15.535156 3 31 C 3 46.464844 15.535156 59 31 59 C 46.464844 59 59 46.464844 59 31 C 59 15.535156 46.464844 3 31 3 Z M 31 53 C 21.109375 53 12.433594 46.402344 9.792969 36.867188 C 7.15625 27.335938 11.203125 17.214844 19.6875 12.128906 C 28.171875 7.042969 39.007813 8.246094 46.171875 15.070313 L 46.851563 15.738281 C 47.109375 16.007813 47.359375 16.28125 47.601563 16.558594 C 53.257813 23.0625 54.597656 32.273438 51.023438 40.121094 C 47.449219 47.964844 39.621094 53 31 53 Z "/>
<path style=" fill:#E0678F;" d="M 31 53 C 18.851563 53 9 43.148438 9 31 L 7.339844 31 C 6.152344 30.996094 5.023438 31.519531 4.261719 32.429688 C 3.5 33.339844 3.179688 34.542969 3.390625 35.710938 C 5.675781 49.171875 17.339844 59.023438 30.996094 59.023438 C 44.652344 59.023438 56.3125 49.171875 58.601563 35.710938 C 58.808594 34.542969 58.492188 33.34375 57.730469 32.433594 C 56.972656 31.523438 55.847656 31 54.660156 31 L 53 31 C 53 43.148438 43.148438 53 31 53 Z "/>
<path style=" fill:#F9E3AE;" d="M 40.121094 23 L 47.140625 23.011719 L 45.789063 24.519531 L 41.96875 28.769531 L 39.441406 31.589844 L 36.351563 35.039063 L 42.898438 35.039063 L 35.128906 42.199219 L 13.601563 62.03125 L 24.011719 43 L 17.070313 43 L 17.691406 42.199219 L 25.871094 31.589844 L 27.871094 29 L 22.078125 29 L 22.328125 28.769531 L 26.859375 24.519531 L 29.871094 21.699219 L 33.640625 18.160156 L 51 1.890625 L 42.609375 18.160156 L 40.789063 21.699219 Z "/>
<path style=" fill:#FAEFDE;" d="M 48.421875 5.578125 L 51 1.890625 L 33.640625 18.160156 L 29.871094 21.699219 L 26.859375 24.519531 L 22.328125 28.769531 L 22.078125 29 L 27.871094 29 Z "/>
<path style=" fill:#FAEFDE;" d="M 26.898438 43 L 24 43 L 13.601563 62 L 17.398438 57.148438 L 27.671875 44.628906 C 27.914063 44.332031 27.960938 43.921875 27.796875 43.574219 C 27.632813 43.226563 27.285156 43.003906 26.898438 43 Z "/>
<path style=" fill:#FAEFDE;" d="M 30.839844 29 L 27.839844 29 L 25.839844 31.589844 L 17.691406 42.199219 L 17.070313 43 L 24.070313 43 L 22.539063 42.390625 L 31.628906 30.609375 C 31.863281 30.308594 31.902344 29.902344 31.734375 29.558594 C 31.566406 29.21875 31.21875 29 30.839844 29 Z "/>
<path style=" fill:#8D6C9F;" d="M 37 51.089844 C 36.832031 50.589844 36.304688 50.300781 35.796875 50.4375 C 35.285156 50.574219 34.964844 51.082031 35.070313 51.601563 L 35.578125 53.53125 C 35.726563 54.074219 36.285156 54.394531 36.828125 54.25 C 37.375 54.105469 37.695313 53.542969 37.550781 53 Z "/>
<path style=" fill:#8D6C9F;" d="M 41.648438 48.929688 C 41.375 48.449219 40.761719 48.285156 40.28125 48.558594 C 39.800781 48.835938 39.632813 49.449219 39.910156 49.929688 L 40.910156 51.671875 C 41.1875 52.152344 41.800781 52.316406 42.28125 52.039063 C 42.761719 51.765625 42.925781 51.152344 42.648438 50.671875 Z "/>
<path style=" fill:#8D6C9F;" d="M 45.550781 45.640625 C 45.160156 45.359375 44.621094 45.398438 44.273438 45.730469 C 43.925781 46.0625 43.867188 46.597656 44.128906 47 L 45.539063 48.421875 C 45.769531 48.726563 46.152344 48.878906 46.527344 48.804688 C 46.90625 48.734375 47.207031 48.457031 47.308594 48.085938 C 47.40625 47.714844 47.289063 47.320313 47 47.070313 Z "/>
<path style=" fill:#8D6C9F;" d="M 31 51 C 30.449219 51 30 51.449219 30 52 L 30 54 C 30 54.550781 30.449219 55 31 55 C 31.550781 55 32 54.550781 32 54 L 32 52 C 32 51.449219 31.550781 51 31 51 Z "/>
<path style=" fill:#8D6C9F;" d="M 59 23.648438 C 57.425781 17.515625 53.867188 12.074219 48.878906 8.171875 L 51.878906 2.339844 C 52.089844 1.910156 51.964844 1.390625 51.582031 1.101563 C 51.199219 0.8125 50.664063 0.839844 50.308594 1.160156 L 45.308594 5.800781 C 35.175781 0.0859375 22.609375 0.984375 13.386719 8.078125 C 4.164063 15.171875 0.078125 27.089844 3 38.351563 C 4.878906 45.617188 9.523438 51.859375 15.941406 55.75 L 12.769531 61.550781 C 12.527344 61.972656 12.625 62.507813 13 62.820313 C 13.175781 62.957031 13.390625 63.03125 13.609375 63.03125 C 13.859375 63.03125 14.105469 62.9375 14.289063 62.769531 L 19.75 57.769531 C 23.3125 59.257813 27.140625 60.015625 31 60 C 33.5 59.984375 35.984375 59.648438 38.398438 59 C 53.824219 54.894531 63.03125 39.09375 59 23.648438 Z M 9.480469 47.328125 C 1.765625 37.203125 2.171875 23.0625 10.457031 13.398438 C 18.742188 3.734375 32.652344 1.167969 43.839844 7.238281 L 21.398438 28.238281 C 21.078125 28.515625 20.964844 28.964844 21.117188 29.359375 C 21.269531 29.757813 21.65625 30.011719 22.078125 30 L 25.828125 30 L 16.28125 42.390625 C 16.046875 42.691406 16.007813 43.097656 16.175781 43.441406 C 16.34375 43.78125 16.6875 44 17.070313 44 L 22.320313 44 L 19.75 48.710938 C 12.726563 44.222656 9.019531 36.007813 10.304688 27.773438 C 11.589844 19.539063 17.621094 12.84375 25.679688 10.710938 C 27.25 10.289063 28.863281 10.050781 30.488281 10 C 31.042969 10 31.488281 9.550781 31.488281 9 C 31.488281 8.449219 31.042969 8 30.488281 8 C 28.710938 8.046875 26.941406 8.296875 25.21875 8.75 C 16.363281 11.085938 9.734375 18.457031 8.347656 27.511719 C 6.964844 36.566406 11.085938 45.582031 18.839844 50.460938 L 16.859375 54 C 14.003906 52.261719 11.5 49.996094 9.480469 47.328125 Z M 19.371094 55.328125 L 17.789063 56.78125 L 17.398438 57.140625 L 17.640625 56.699219 L 18.640625 54.949219 L 24.929688 43.441406 C 25.109375 43.128906 25.109375 42.75 24.929688 42.441406 C 24.726563 42.132813 24.367188 41.964844 24 42 L 19.101563 42 L 28.660156 29.609375 C 28.871094 29.320313 28.910156 28.9375 28.761719 28.609375 C 28.59375 28.269531 28.25 28.054688 27.871094 28.050781 L 24.609375 28.050781 L 45.609375 8.359375 L 47.109375 6.949219 L 47.449219 6.628906 L 47.25 7 L 46.328125 8.789063 L 44.238281 12.789063 L 43.660156 14 L 39.230469 22.589844 C 39.09375 22.894531 39.117188 23.25 39.296875 23.535156 C 39.476563 23.816406 39.785156 23.992188 40.121094 24 L 44.910156 24 L 35.601563 34.378906 C 35.339844 34.675781 35.277344 35.09375 35.441406 35.449219 C 35.601563 35.808594 35.957031 36.039063 36.351563 36.039063 L 40.351563 36.039063 Z M 54.308594 44.628906 C 47.644531 56.027344 33.714844 60.933594 21.378906 56.230469 L 43.578125 35.78125 C 43.882813 35.5 43.980469 35.0625 43.828125 34.679688 C 43.695313 34.28125 43.324219 34.007813 42.898438 34 L 38.589844 34 L 47.890625 23.640625 C 48.15625 23.34375 48.222656 22.921875 48.058594 22.558594 C 47.898438 22.203125 47.542969 21.972656 47.148438 21.96875 L 41.761719 21.96875 L 45.128906 15.441406 C 52.429688 22.125 54.09375 32.988281 49.128906 41.550781 C 48.96875 41.785156 48.917969 42.082031 48.988281 42.359375 C 49.058594 42.636719 49.246094 42.867188 49.5 43 C 49.652344 43.085938 49.824219 43.132813 50 43.128906 C 50.355469 43.132813 50.6875 42.945313 50.871094 42.640625 C 56.433594 33.074219 54.417969 20.902344 46.070313 13.640625 L 48 10 C 58.402344 18.386719 61.105469 33.117188 54.359375 44.648438 Z "/>
<path style=" fill:#8D6C9F;" d="M 34.621094 10.308594 C 35.359375 10.441406 36.089844 10.609375 36.808594 10.820313 C 37.339844 10.976563 37.894531 10.671875 38.050781 10.140625 C 38.203125 9.609375 37.898438 9.054688 37.371094 8.898438 C 36.589844 8.671875 35.800781 8.484375 35 8.339844 C 34.449219 8.242188 33.921875 8.613281 33.824219 9.164063 C 33.726563 9.71875 34.097656 10.242188 34.648438 10.339844 Z "/>
</g>
</svg>
